<?xml version="1.0" encoding="utf-8"?>
<!-- Generator: Adobe Illustrator 16.0.4, SVG Export Plug-In . SVG Version: 6.00 Build 0)  -->
<!DOCTYPE svg PUBLIC "-//W3C//DTD SVG 1.1//EN" "http://www.w3.org/Graphics/SVG/1.1/DTD/svg11.dtd">
<svg version="1.1" id="Layer_1" xmlns="http://www.w3.org/2000/svg" xmlns:xlink="http://www.w3.org/1999/xlink" x="0px" y="0px"
	 width="30px" height="30px" viewBox="0 0 30 30" enable-background="new 0 0 30 30" xml:space="preserve">
<g>
	<line fill="none" stroke="#000000" stroke-width="3" stroke-miterlimit="10" x1="22.166" y1="14.929" x2="7.166" y2="14.929"/>
	<line fill="none" stroke="#000000" stroke-width="3" stroke-miterlimit="10" x1="14.666" y1="22.43" x2="14.666" y2="7.429"/>
</g>
<g>
	<polygon fill="#000000" points="-84.088,7.687 -85.488,7.687 -85.512,7.687 -86.914,7.687 -87.764,10.687 -83.238,10.687 	"/>
	<polygon fill="#000000" points="-93,15.271 -92.689,16.637 -92.684,16.658 -92.371,18.025 -89.27,18.188 -90.277,13.776 	"/>
	<polygon fill="#000000" points="-89.971,21.035 -88.709,21.643 -88.688,21.652 -87.426,22.262 -85.363,19.938 -89.439,17.975 	"/>
	<polygon fill="#000000" points="-83.574,22.26 -82.312,21.652 -82.291,21.643 -81.029,21.035 -81.561,17.973 -85.637,19.938 	"/>
	<polygon fill="#000000" points="-78.629,18.023 -78.316,16.658 -78.312,16.635 -78,15.269 -80.725,13.776 -81.73,18.188 	"/>
	<polygon fill="#000000" points="-78.857,11.515 -79.73,10.42 -79.746,10.401 -80.619,9.307 -83.486,10.505 -80.664,14.043 	"/>
	<polygon fill="#000000" points="-90.383,9.308 -91.256,10.402 -91.271,10.421 -92.145,11.517 -90.338,14.044 -87.516,10.506 	"/>
	<path fill="#000000" d="M-85.5,9.302c-3.152,0-5.707,2.555-5.707,5.705c0,3.151,2.555,5.706,5.707,5.706
		c3.15,0,5.705-2.555,5.705-5.706C-79.795,11.856-82.35,9.302-85.5,9.302z M-85.5,18.008c-1.656,0-3-1.344-3-3.001s1.344-3,3-3
		c1.654,0,3,1.343,3,3S-83.846,18.008-85.5,18.008z"/>
</g>
<g>
	<line fill="none" stroke="#000000" stroke-width="3" stroke-miterlimit="10" x1="-126.771" y1="9.544" x2="-137.301" y2="9.544"/>
	<ellipse fill="#000000" cx="-140.992" cy="9.544" rx="1.508" ry="1.5"/>
	
		<line fill="none" stroke="#000000" stroke-width="3" stroke-miterlimit="10" x1="-126.771" y1="15.544" x2="-137.301" y2="15.544"/>
	<ellipse fill="#000000" cx="-140.992" cy="15.544" rx="1.508" ry="1.501"/>
	
		<line fill="none" stroke="#000000" stroke-width="3" stroke-miterlimit="10" x1="-126.771" y1="21.545" x2="-137.301" y2="21.545"/>
	<ellipse fill="#000000" cx="-140.992" cy="21.545" rx="1.508" ry="1.5"/>
</g>
<g>
	<line fill="none" stroke="#000000" stroke-width="3" stroke-miterlimit="10" x1="-191" y1="11.544" x2="-191" y2="22.545"/>
	<line fill="none" stroke="#000000" stroke-width="3" stroke-miterlimit="10" x1="-185" y1="7.544" x2="-185" y2="22.545"/>
	<line fill="none" stroke="#000000" stroke-width="3" stroke-miterlimit="10" x1="-179" y1="10.023" x2="-179" y2="22.545"/>
</g>
<polyline fill="none" stroke="#000000" stroke-width="3" stroke-miterlimit="10" points="-228,9.023 -236.715,19.199 -242,14.546 
	"/>
<g>
	<path fill="none" stroke="#000000" stroke-width="3" stroke-miterlimit="10" d="M-282.913,9.913
		c-0.483-0.54-1.217-1.053-2.291-1.053c-1.422,0-2.534,1.086-2.534,2.473c0,1.812,1.641,2.598,3.087,3.291
		c1.826,0.874,2.934,1.515,2.934,3.032c0,1.709-0.816,2.785-2.361,3.109c0,0-0.83,0.232-1.937-0.033s-2.02-1.062-2.479-2.115"/>
	<line fill="none" stroke="#000000" stroke-width="3" stroke-miterlimit="10" x1="-285.106" y1="6.083" x2="-285.106" y2="9.86"/>
	
		<line fill="none" stroke="#000000" stroke-width="3" stroke-miterlimit="10" x1="-285.106" y1="20.082" x2="-285.106" y2="23.859"/>
</g>
</svg>
