<?xml version="1.0" encoding="utf-8"?>
<!-- Generator: Adobe Illustrator 16.0.4, SVG Export Plug-In . SVG Version: 6.00 Build 0)  -->
<!DOCTYPE svg PUBLIC "-//W3C//DTD SVG 1.1//EN" "http://www.w3.org/Graphics/SVG/1.1/DTD/svg11.dtd">
<svg version="1.1" id="Layer_1" xmlns="http://www.w3.org/2000/svg" xmlns:xlink="http://www.w3.org/1999/xlink" x="0px" y="0px"
	 width="30px" height="30px" viewBox="0 0 30 30" enable-background="new 0 0 30 30" xml:space="preserve">
<rect x="149.493" y="-0.001" fill="#231F20" width="30" height="30.001"/>
<g>
	<line fill="none" stroke="#FFFFFF" stroke-width="3" stroke-miterlimit="10" x1="171.659" y1="14.999" x2="156.659" y2="14.999"/>
	<line fill="none" stroke="#FFFFFF" stroke-width="3" stroke-miterlimit="10" x1="164.159" y1="22.5" x2="164.159" y2="7.499"/>
</g>
<rect x="49.493" y="-0.001" fill="#231F20" width="30" height="30.001"/>
<g>
	<polygon fill="#FFFFFF" points="65.405,7.757 64.005,7.757 63.981,7.757 62.579,7.757 61.729,10.757 66.255,10.757 	"/>
	<polygon fill="#FFFFFF" points="56.493,15.341 56.804,16.707 56.81,16.729 57.122,18.096 60.224,18.258 59.216,13.847 	"/>
	<polygon fill="#FFFFFF" points="59.522,21.105 60.784,21.713 60.806,21.723 62.067,22.332 64.13,20.008 60.054,18.045 	"/>
	<polygon fill="#FFFFFF" points="65.919,22.33 67.181,21.723 67.202,21.713 68.464,21.105 67.933,18.043 63.856,20.008 	"/>
	<polygon fill="#FFFFFF" points="70.864,18.094 71.177,16.729 71.181,16.705 71.493,15.339 68.769,13.847 67.763,18.258 	"/>
	<polygon fill="#FFFFFF" points="70.636,11.585 69.763,10.49 69.747,10.472 68.874,9.377 66.007,10.575 68.829,14.113 	"/>
	<polygon fill="#FFFFFF" points="59.11,9.378 58.237,10.473 58.222,10.491 57.349,11.587 59.155,14.114 61.978,10.576 	"/>
	<path fill="#FFFFFF" d="M63.993,9.372c-3.152,0-5.707,2.555-5.707,5.705c0,3.151,2.555,5.706,5.707,5.706
		c3.15,0,5.705-2.555,5.705-5.706C69.698,11.927,67.144,9.372,63.993,9.372z M63.993,18.078c-1.656,0-3-1.344-3-3.001s1.344-3,3-3
		c1.654,0,3,1.343,3,3S65.647,18.078,63.993,18.078z"/>
</g>
<g>
	<line fill="none" stroke="#FFFFFF" stroke-width="3" stroke-miterlimit="10" x1="22.722" y1="9.614" x2="12.192" y2="9.614"/>
	<ellipse fill="#FFFFFF" cx="8.501" cy="9.614" rx="1.508" ry="1.5"/>
	<line fill="none" stroke="#FFFFFF" stroke-width="3" stroke-miterlimit="10" x1="22.722" y1="15.614" x2="12.192" y2="15.614"/>
	<ellipse fill="#FFFFFF" cx="8.501" cy="15.614" rx="1.508" ry="1.501"/>
	<line fill="none" stroke="#FFFFFF" stroke-width="3" stroke-miterlimit="10" x1="22.722" y1="21.615" x2="12.192" y2="21.615"/>
	<ellipse fill="#FFFFFF" cx="8.501" cy="21.615" rx="1.508" ry="1.5"/>
</g>
<g>
	<line fill="none" stroke="#FFFFFF" stroke-width="3" stroke-miterlimit="10" x1="-41.507" y1="11.614" x2="-41.507" y2="22.615"/>
	<line fill="none" stroke="#FFFFFF" stroke-width="3" stroke-miterlimit="10" x1="-35.507" y1="7.614" x2="-35.507" y2="22.615"/>
	<line fill="none" stroke="#FFFFFF" stroke-width="3" stroke-miterlimit="10" x1="-29.507" y1="10.094" x2="-29.507" y2="22.615"/>
</g>
<polyline fill="none" stroke="#FFFFFF" stroke-width="3" stroke-miterlimit="10" points="-78.507,9.094 -87.222,19.27 
	-92.507,14.616 "/>
<g>
	<path fill="none" stroke="#FFFFFF" stroke-width="3" stroke-miterlimit="10" d="M-133.419,9.983
		c-0.483-0.54-1.217-1.053-2.291-1.053c-1.422,0-2.534,1.086-2.534,2.473c0,1.812,1.641,2.598,3.087,3.291
		c1.826,0.874,2.934,1.515,2.934,3.032c0,1.709-0.816,2.785-2.361,3.109c0,0-0.83,0.232-1.937-0.033s-2.02-1.062-2.479-2.115"/>
	<line fill="none" stroke="#FFFFFF" stroke-width="3" stroke-miterlimit="10" x1="-135.613" y1="6.153" x2="-135.613" y2="9.931"/>
	<line fill="none" stroke="#FFFFFF" stroke-width="3" stroke-miterlimit="10" x1="-135.613" y1="20.152" x2="-135.613" y2="23.93"/>
</g>
</svg>
