<?xml version="1.0" encoding="utf-8"?>
<!-- Generator: Adobe Illustrator 16.0.4, SVG Export Plug-In . SVG Version: 6.00 Build 0)  -->
<!DOCTYPE svg PUBLIC "-//W3C//DTD SVG 1.1//EN" "http://www.w3.org/Graphics/SVG/1.1/DTD/svg11.dtd">
<svg version="1.1" id="Layer_1" xmlns="http://www.w3.org/2000/svg" xmlns:xlink="http://www.w3.org/1999/xlink" x="0px" y="0px"
	 width="30px" height="30px" viewBox="0 0 30 30" enable-background="new 0 0 30 30" xml:space="preserve">
<rect x="99.739" y="-0.07" fill="#231F20" width="30" height="30.001"/>
<g>
	<line fill="none" stroke="#000000" stroke-width="3" stroke-miterlimit="10" x1="121.905" y1="14.93" x2="106.905" y2="14.93"/>
	<line fill="none" stroke="#000000" stroke-width="3" stroke-miterlimit="10" x1="114.405" y1="22.431" x2="114.405" y2="7.43"/>
</g>
<g>
	<polygon fill="#000000" points="15.651,7.688 14.251,7.688 14.228,7.688 12.825,7.688 11.976,10.688 16.501,10.688 	"/>
	<polygon fill="#000000" points="6.739,15.271 7.05,16.638 7.056,16.659 7.368,18.026 10.47,18.188 9.462,13.777 	"/>
	<polygon fill="#000000" points="9.769,21.036 11.03,21.644 11.052,21.653 12.313,22.263 14.376,19.938 10.3,17.976 	"/>
	<polygon fill="#000000" points="16.165,22.261 17.427,21.653 17.448,21.644 18.71,21.036 18.179,17.974 14.103,19.938 	"/>
	<polygon fill="#000000" points="21.11,18.024 21.423,16.659 21.427,16.636 21.739,15.27 19.015,13.777 18.009,18.188 	"/>
	<polygon fill="#000000" points="20.882,11.516 20.009,10.421 19.993,10.402 19.12,9.308 16.253,10.506 19.075,14.044 	"/>
	<polygon fill="#000000" points="9.356,9.309 8.483,10.403 8.468,10.422 7.595,11.518 9.401,14.045 12.224,10.507 	"/>
	<path fill="#000000" d="M14.239,9.303c-3.152,0-5.707,2.555-5.707,5.705c0,3.151,2.555,5.706,5.707,5.706
		c3.15,0,5.705-2.555,5.705-5.706C19.944,11.857,17.39,9.303,14.239,9.303z M14.239,18.009c-1.656,0-3-1.344-3-3.001s1.344-3,3-3
		c1.654,0,3,1.343,3,3S15.894,18.009,14.239,18.009z"/>
</g>
<g>
	<line fill="none" stroke="#000000" stroke-width="3" stroke-miterlimit="10" x1="-27.032" y1="9.545" x2="-37.562" y2="9.545"/>
	<ellipse fill="#000000" cx="-41.253" cy="9.545" rx="1.508" ry="1.5"/>
	<line fill="none" stroke="#000000" stroke-width="3" stroke-miterlimit="10" x1="-27.032" y1="15.545" x2="-37.562" y2="15.545"/>
	<ellipse fill="#000000" cx="-41.253" cy="15.545" rx="1.508" ry="1.501"/>
	<line fill="none" stroke="#000000" stroke-width="3" stroke-miterlimit="10" x1="-27.032" y1="21.546" x2="-37.562" y2="21.546"/>
	<ellipse fill="#000000" cx="-41.253" cy="21.546" rx="1.508" ry="1.5"/>
</g>
<g>
	<line fill="none" stroke="#000000" stroke-width="3" stroke-miterlimit="10" x1="-91.261" y1="11.545" x2="-91.261" y2="22.546"/>
	<line fill="none" stroke="#000000" stroke-width="3" stroke-miterlimit="10" x1="-85.261" y1="7.545" x2="-85.261" y2="22.546"/>
	<line fill="none" stroke="#000000" stroke-width="3" stroke-miterlimit="10" x1="-79.261" y1="10.024" x2="-79.261" y2="22.546"/>
</g>
<polyline fill="none" stroke="#000000" stroke-width="3" stroke-miterlimit="10" points="-128.261,9.024 -136.976,19.2 
	-142.261,14.547 "/>
<g>
	<path fill="none" stroke="#000000" stroke-width="3" stroke-miterlimit="10" d="M-183.173,9.914
		c-0.483-0.54-1.217-1.053-2.291-1.053c-1.422,0-2.534,1.086-2.534,2.473c0,1.812,1.641,2.598,3.087,3.291
		c1.826,0.874,2.934,1.515,2.934,3.032c0,1.709-0.816,2.785-2.361,3.109c0,0-0.83,0.232-1.937-0.033s-2.02-1.062-2.479-2.115"/>
	<line fill="none" stroke="#000000" stroke-width="3" stroke-miterlimit="10" x1="-185.367" y1="6.084" x2="-185.367" y2="9.861"/>
	<line fill="none" stroke="#000000" stroke-width="3" stroke-miterlimit="10" x1="-185.367" y1="20.083" x2="-185.367" y2="23.86"/>
</g>
</svg>
