<?xml version="1.0" encoding="utf-8"?>
<!-- Generator: Adobe Illustrator 16.0.4, SVG Export Plug-In . SVG Version: 6.00 Build 0)  -->
<!DOCTYPE svg PUBLIC "-//W3C//DTD SVG 1.1//EN" "http://www.w3.org/Graphics/SVG/1.1/DTD/svg11.dtd">
<svg version="1.1" id="Layer_1" xmlns="http://www.w3.org/2000/svg" xmlns:xlink="http://www.w3.org/1999/xlink" x="0px" y="0px"
	 width="371.396px" height="114.599px" viewBox="0 0 371.396 114.599" enable-background="new 0 0 371.396 114.599"
	 xml:space="preserve">
<g>
	<path fill="#FFFFFF" d="M48.26,13.98c4.92,4.281,7.38,10.4,7.38,18.36c0,7.961-2.46,14.082-7.38,18.36
		c-4.92,4.281-11.78,6.421-20.58,6.421h-13.2V85.44H0.2V7.56h27.48C36.48,7.56,43.34,9.701,48.26,13.98z M27.68,44.76
		c4.399,0,7.72-1.159,9.96-3.48C39.879,38.96,41,35.981,41,32.34c0-3.639-1.122-6.639-3.36-9c-2.241-2.359-5.562-3.54-9.96-3.54
		h-13.2v24.96H27.68z"/>
	<path fill="#FFFFFF" d="M115.459,42.96c1,3.36,1.5,6.44,1.5,9.24c0,2.801-0.161,5.321-0.48,7.561H78.8
		c0.159,4.721,1.32,8.561,3.48,11.52c2.16,2.961,5.439,4.44,9.84,4.44c5.839,0,9.319-2.56,10.44-7.681h14.28
		c-0.96,5.841-3.642,10.44-8.04,13.801c-4.56,3.521-10.122,5.279-16.68,5.279c-7.68,0-14.121-2.799-19.32-8.399
		c-5.361-5.839-8.04-13.32-8.04-22.44c0-9.36,2.679-16.878,8.04-22.56c5.119-5.439,11.559-8.16,19.32-8.16
		c8.08,0,14.359,2.84,18.84,8.52C112.958,36.641,114.458,39.6,115.459,42.96z M92.24,36.84c-4.001,0-7.122,1.301-9.36,3.9
		c-2.24,2.601-3.561,5.94-3.96,10.02h24.84c0-6.318-2.001-10.56-6-12.72C96.239,37.241,94.399,36.84,92.24,36.84z"/>
	<path fill="#FFFFFF" d="M148.04,38.64c3.52-8.4,8.799-12.6,15.84-12.6c1.359,0,3.078,0.281,5.16,0.84l-0.24,14.16
		c-2.24-0.48-4.44-0.72-6.6-0.72c-9.441,0-14.161,6.521-14.161,19.561v25.56h-14.16V27h14.16V38.64z"/>
	<path fill="#FFFFFF" d="M183.317,8.28c0-2.559,0.76-4.579,2.28-6.06c1.519-1.479,3.679-2.22,6.48-2.22
		c2.719,0,4.859,0.741,6.42,2.22c1.56,1.481,2.34,3.501,2.34,6.06c0,2.562-0.78,4.581-2.34,6.06c-1.561,1.481-3.701,2.22-6.42,2.22
		c-2.802,0-4.962-0.739-6.48-2.22C184.077,12.86,183.317,10.841,183.317,8.28z M184.998,27h14.159v58.44h-14.159V27z"/>
	<path fill="#FFFFFF" d="M241.076,25.56c3.919,0,7.6,0.621,11.04,1.86c3.438,1.241,6.399,3.141,8.88,5.7
		c5.52,5.601,8.28,13.361,8.28,23.28c0,9.762-2.761,17.441-8.28,23.04c-4.961,5.121-11.601,7.68-19.92,7.68
		c-8.321,0-15.041-2.559-20.16-7.68c-5.52-5.52-8.28-13.2-8.28-23.04c0-10,2.761-17.76,8.28-23.28
		C225.956,28.08,232.676,25.56,241.076,25.56z M255.116,56.28c0-6.159-1.2-10.779-3.601-13.86c-2.399-3.079-5.741-4.62-10.02-4.62
		c-4.28,0-7.781,1.542-10.5,4.62c-2.721,3.081-4.08,7.701-4.08,13.86c0,6.161,1.219,10.781,3.66,13.86
		c2.439,3.08,5.778,4.62,10.02,4.62c4.24,0,7.72-1.54,10.44-4.62C253.755,67.061,255.116,62.441,255.116,56.28z"/>
	<path fill="#FFFFFF" d="M324.116,76.44c-3.601,7.121-9.12,10.68-16.561,10.68c-7.439,0-13.68-2.839-18.72-8.52
		c-5.201-5.92-7.8-13.44-7.8-22.56c0-9.12,2.479-16.519,7.439-22.2c4.879-5.52,10.96-8.28,18.24-8.28
		c7.279,0,12.76,2.921,16.44,8.76V3.12h14.279v82.32h-11.64L324.116,76.44z M309.356,38.28c-4.002,0-7.341,1.62-10.021,4.86
		c-2.682,3.24-4.02,7.581-4.02,13.02c0,5.441,1.359,9.821,4.08,13.14c2.719,3.32,6.159,4.979,10.319,4.979
		c3.438,0,6.52-1.359,9.24-4.08c2.8-2.799,4.2-6.318,4.2-10.56v-7.56c-0.161-4.159-1.561-7.56-4.2-10.2
		C316.556,39.48,313.355,38.28,309.356,38.28z"/>
	<path fill="#FFFFFF" d="M354.235,83.88c-1.841-1.759-2.76-4-2.76-6.721c0-2.719,0.919-4.998,2.76-6.84
		c1.84-1.839,4.2-2.76,7.08-2.76s5.28,0.921,7.2,2.76c1.92,1.842,2.88,4.121,2.88,6.84c0,2.721-0.96,4.962-2.88,6.721
		s-4.32,2.64-7.2,2.64S356.075,85.639,354.235,83.88z"/>
</g>
<path fill="#FFFFFF" d="M0,114.599V100.44h371.396v14.159H0z"/>
</svg>
